<svg width="21" height="21" viewBox="0 0 21 21" fill="none" xmlns="http://www.w3.org/2000/svg">
<path d="M10.4988 5.49291C7.72778 5.49291 5.49145 7.72924 5.49145 10.5002C5.49145 13.2712 7.72778 15.5076 10.4988 15.5076C13.2698 15.5076 15.5061 13.2712 15.5061 10.5002C15.5061 7.72924 13.2698 5.49291 10.4988 5.49291ZM10.4988 13.7546C8.70678 13.7546 7.24438 12.2922 7.24438 10.5002C7.24438 8.70825 8.70678 7.24584 10.4988 7.24584C12.2908 7.24584 13.7532 8.70825 13.7532 10.5002C13.7532 12.2922 12.2908 13.7546 10.4988 13.7546ZM15.7112 4.12084C15.0642 4.12084 14.5417 4.6433 14.5417 5.29028C14.5417 5.93725 15.0642 6.45971 15.7112 6.45971C16.3581 6.45971 16.8806 5.93969 16.8806 5.29028C16.8808 5.13665 16.8507 4.9845 16.792 4.84253C16.7333 4.70056 16.6471 4.57156 16.5385 4.46293C16.4299 4.3543 16.3009 4.26817 16.1589 4.20947C16.017 4.15077 15.8648 4.12065 15.7112 4.12084ZM20.2595 10.5002C20.2595 9.15258 20.2717 7.81713 20.196 6.47192C20.1204 4.90942 19.7639 3.5227 18.6213 2.38012C17.4763 1.2351 16.092 0.881097 14.5295 0.805414C13.1819 0.72973 11.8464 0.741937 10.5012 0.741937C9.15356 0.741937 7.81811 0.72973 6.47289 0.805414C4.91039 0.881097 3.52368 1.23754 2.3811 2.38012C1.23608 3.52514 0.882074 4.90942 0.80639 6.47192C0.730707 7.81957 0.742914 9.15502 0.742914 10.5002C0.742914 11.8455 0.730707 13.1833 0.80639 14.5286C0.882074 16.0911 1.23852 17.4778 2.3811 18.6204C3.52612 19.7654 4.91039 20.1194 6.47289 20.1951C7.82055 20.2707 9.156 20.2585 10.5012 20.2585C11.8489 20.2585 13.1843 20.2707 14.5295 20.1951C16.092 20.1194 17.4788 19.7629 18.6213 18.6204C19.7663 17.4753 20.1204 16.0911 20.196 14.5286C20.2742 13.1833 20.2595 11.8479 20.2595 10.5002ZM18.1111 16.2571C17.9329 16.7014 17.718 17.0334 17.3738 17.3752C17.0295 17.7195 16.6999 17.9343 16.2556 18.1125C14.9714 18.6228 11.9221 18.5081 10.4988 18.5081C9.07543 18.5081 6.02367 18.6228 4.7395 18.115C4.29516 17.9368 3.96313 17.7219 3.62133 17.3777C3.27709 17.0334 3.06225 16.7039 2.88403 16.2595C2.37621 14.9729 2.49096 11.9236 2.49096 10.5002C2.49096 9.0769 2.37621 6.02514 2.88403 4.74096C3.06225 4.29662 3.27709 3.96459 3.62133 3.6228C3.96557 3.281 4.29516 3.06371 4.7395 2.88549C6.02367 2.37768 9.07543 2.49243 10.4988 2.49243C11.9221 2.49243 14.9739 2.37768 16.258 2.88549C16.7024 3.06371 17.0344 3.27856 17.3762 3.6228C17.7205 3.96704 17.9353 4.29662 18.1135 4.74096C18.6213 6.02514 18.5066 9.0769 18.5066 10.5002C18.5066 11.9236 18.6213 14.9729 18.1111 16.2571Z" fill="white"/>
</svg>
