<svg width="18" height="17" viewBox="0 0 18 17" fill="none" xmlns="http://www.w3.org/2000/svg">
<path d="M4.08615 16.9995V5.52965H0.22765V16.9995H4.08615ZM2.1574 3.96269C3.50292 3.96269 4.34045 3.08193 4.34045 1.98129C4.31538 0.855819 3.50298 -0.000488281 2.18293 -0.000488281C0.863094 -0.000488281 0 0.855836 0 1.98129C0 3.08199 0.837319 3.96269 2.13221 3.96269H2.15728H2.1574ZM6.22182 16.9995H10.0803V10.5942C10.0803 10.2514 10.1054 9.90893 10.2073 9.66388C10.4862 8.97896 11.1211 8.26959 12.187 8.26959C13.5832 8.26959 14.1418 9.32141 14.1418 10.8633V16.9994H18V10.4227C18 6.89962 16.0965 5.26037 13.5578 5.26037C11.4763 5.26037 10.5624 6.40994 10.0546 7.19291H10.0804V5.52941H6.2219C6.27254 6.60568 6.2219 16.9993 6.2219 16.9993L6.22182 16.9995Z" fill="white"/>
</svg>
