<svg width="20" height="16" viewBox="0 0 20 16" fill="none" xmlns="http://www.w3.org/2000/svg">
<path d="M19.7484 1.96017C19.0313 2.26954 18.2508 2.4922 17.4469 2.57892C18.2815 2.08306 18.9065 1.2997 19.2047 0.375791C18.4215 0.841703 17.5635 1.16841 16.6688 1.34142C16.2948 0.941634 15.8425 0.62315 15.3401 0.405808C14.8377 0.188467 14.2959 0.0769255 13.7484 0.0781347C11.5336 0.0781347 9.75235 1.87345 9.75235 4.07657C9.75235 4.38595 9.78985 4.69532 9.85078 4.99298C6.53438 4.81954 3.57656 3.23517 1.61016 0.809385C1.25186 1.42137 1.06409 2.1182 1.06641 2.82735C1.06641 4.21485 1.77188 5.43829 2.84766 6.15782C2.21368 6.13285 1.59455 5.9586 1.04063 5.64923V5.69845C1.04063 7.64142 2.41406 9.25157 4.24453 9.62189C3.90084 9.71116 3.54728 9.75683 3.19219 9.75782C2.93203 9.75782 2.68594 9.73204 2.4375 9.69689C2.94375 11.2813 4.41797 12.432 6.17344 12.4695C4.8 13.5453 3.07969 14.1781 1.21172 14.1781C0.876563 14.1781 0.567188 14.1664 0.246094 14.1289C2.01797 15.2656 4.12031 15.9219 6.38438 15.9219C13.7344 15.9219 17.7563 9.83282 17.7563 4.54767C17.7563 4.37423 17.7563 4.20079 17.7445 4.02735C18.5227 3.45782 19.2047 2.75235 19.7484 1.96017Z" fill="white"/>
</svg>
