<?xml version="1.0" encoding="utf-8"?>
<!-- Generator: Adobe Illustrator 25.4.1, SVG Export Plug-In . SVG Version: 6.00 Build 0)  -->
<svg version="1.1" id="Layer_1" xmlns="http://www.w3.org/2000/svg" xmlns:xlink="http://www.w3.org/1999/xlink" x="0px" y="0px"
	 viewBox="0 0 215 42" style="enable-background:new 0 0 215 42;" xml:space="preserve">
<g>
	<path d="M34.048,18.599v-0.4l-3.2-2.9h-0.4c-0.9,1-2.2,1.8-3.8,1.8c-2.4,0-4.2-1.9-4.2-4.6c0-2.6,1.9-4.6,4.2-4.6
		c1.5,0,2.9,0.8,3.8,1.8h0.4l3.2-2.8v-0.4c-1.7-2.2-4.3-3.6-7.3-3.6c-5.5,0-9.7,4.1-9.7,9.7c0,0.2,0,0.4,0.1,0.6
		c2.3,1.6,4.2,2.9,6,4.1c2.5,1.7,4.5,3.2,6.1,4.6C31.248,21.299,32.848,20.099,34.048,18.599z M19.048,18.499
		c1.3,1.7,3.1,2.9,5.2,3.4c-1.4-0.9-2.8-1.7-4.2-2.6C19.748,18.999,19.448,18.799,19.048,18.499z"/>
	<path d="M53.048,20.699l-0.8-3.5l-0.3-0.2c-0.2,0.1-0.3,0.2-0.7,0.2c-0.6,0-1-0.7-1.3-1.2c-0.5-0.8-1-1.3-1.3-1.4
		c1.9-0.9,3.2-2.5,3.2-4.8c0-3.6-2.4-5.9-7-5.9h-7.8v17.7h5.2v-6.2h0.5c1.2,0,2.6,2.6,3.3,3.7c1.4,2.3,2.6,2.8,4.6,2.8
		c1,0,1.7-0.4,2.2-0.8L53.048,20.699z M46.548,10.099c0,1.2-0.8,1.7-1.8,1.7h-2.4v-3.5h2.4C45.648,8.299,46.548,8.899,46.548,10.099
		z"/>
	<path d="M74.048,12.399c0-5.4-4.3-9.5-10-9.5s-10,4.1-10,9.5s4.3,9.5,10,9.5S74.048,17.799,74.048,12.399z
		 M68.448,12.399c0,2.6-2,4.5-4.4,4.5s-4.4-1.9-4.4-4.5s1.9-4.5,4.4-4.5S68.448,9.799,68.448,12.399z"/>
	<path d="M100.848,3.899h-5.1l-3.2,10l-3.4-10h-3.2l-3.3,9.9l-3.2-9.9h-5.1l-0.3,0.4l6.6,17.6h3.3l3.7-9.8l3.7,9.8h3.2
		l6.5-17.6L100.848,3.899z"/>
	<path d="M121.048,12.899c0-5.4-3.6-9-9.6-9h-8.4v18h8.4C117.448,21.899,121.048,18.299,121.048,12.899z
		 M115.448,12.899c0,2.9-1.8,4.6-4.2,4.6h-2.7v-9.2h2.7C113.648,8.299,115.448,9.999,115.448,12.899z"/>
	<path d="M148.748,8.299h5.3v-4.4h-16v4.4h5.3v13.6h5.3L148.748,8.299L148.748,8.299z"/>
	<path d="M171.648,9.899c0-3.7-2.6-6-7.3-6h-8.3v18h5.5v-6.3h1.3l3.4,6.3h5.5l0.3-0.4l-3.7-6.7
		C170.348,13.899,171.648,12.299,171.648,9.899z M166.048,10.199c0,1.2-0.9,1.8-1.9,1.8h-2.6v-3.7h2.6
		C165.148,8.299,166.048,8.999,166.048,10.199z"/>
	<path d="M175.048,21.899h5v-18h-5V21.899z"/>
	<path d="M193.448,11.999l6.2-7.6l-0.3-0.5h-5.8l-5,6.4v-6.4h-5.5v18h5.4v-5.5l1-1.2l4.6,6.7h5.7l0.2-0.4
		L193.448,11.999z"/>
	<path d="M214.948,8.299v-4.4h-12.9v18h13v-4.4h-7.8v-2.5h5.9v-4.2h-5.9v-2.5H214.948z"/>
	<path d="M129.748,21.899c3.9,0,7.3-2,7.3-5.8c0-4.1-3.4-5.2-6.4-6.1c-1.2-0.4-2.4-0.8-2.4-1.7c0-0.6,0.7-1,1.7-1
		c1.7,0,3.2,1.1,4,1.9h0.4l2.5-3.1v-0.5c-1.3-1.5-4-2.7-6.9-2.7c-4.1,0-7,2.3-7,5.7c0,3.6,3.2,5.2,5.8,6c1.7,0.5,2.9,0.6,2.9,1.6
		c0,0.7-0.8,1.1-2.1,1.1c-1.6,0-3.6-1.1-4.6-2.1h-0.4l-2.5,3.2v0.4C123.648,20.599,126.448,21.899,129.748,21.899z"/>
	<path d="M37.048,37.899c-1.3-2.9-3.9-6.6-14.1-12c-4.7-2.5-12.7-6.5-19.9-14c0.7,2.7,4,8.7,18.4,16.1
		C25.448,30.099,32.148,32.199,37.048,37.899z"/>
	<g>
		<path d="M37.048,32.899c-1.2-3.5-3.5-8-14.2-14.7c-5.1-3.3-12.8-7.5-22.8-18.3c0.7,2.9,3.9,10.4,19.9,20.2
			C25.148,23.599,31.948,25.799,37.048,32.899z"/>
	</g>
</g>
<g>
	<path d="M158.373,41.292h2.233v-8.535h-2.233V41.292z M158.373,31.427h2.233v-2.03h-2.233V31.427z"/>
	<path d="M164.228,32.758h-2.184v8.535h2.233v-4.841c0-1.165,0.722-1.963,1.707-1.963c0.936,0,1.461,0.649,1.461,1.564v5.241h2.233
		v-5.573c0-1.863-1.166-3.194-2.906-3.194c-1.149,0-1.921,0.482-2.495,1.397h-0.049V32.758z"/>
	<path d="M173.127,41.292h2.134l2.939-8.535h-2.233l-1.379,4.425c-0.246,0.815-0.361,1.364-0.361,1.364h-0.033
		c0,0-0.131-0.549-0.378-1.364l-1.346-4.425h-2.266L173.127,41.292z"/>
	<path d="M182.675,41.542c2.167,0,3.497-1.281,3.809-2.795h-2.2c-0.246,0.649-0.755,1.048-1.625,1.048
		c-1.264,0-1.986-0.815-2.151-2.129h6.107c0-3.045-1.445-5.141-4.154-5.141c-2.463,0-4.154,1.963-4.154,4.492
		C178.308,39.562,179.884,41.542,182.675,41.542z M182.494,34.272c1.018,0,1.724,0.749,1.79,1.83h-3.743
		C180.738,34.987,181.312,34.272,182.494,34.272z"/>
	<path d="M191.063,41.542c2.101,0,3.546-1.031,3.546-2.745c0-1.996-1.56-2.396-2.972-2.695c-1.198-0.25-2.315-0.316-2.315-1.048
		c0-0.616,0.575-0.948,1.445-0.948c0.952,0,1.527,0.333,1.625,1.248h2.019c-0.164-1.714-1.395-2.828-3.612-2.828
		c-1.921,0-3.431,0.882-3.431,2.728c0,1.863,1.477,2.279,2.988,2.579c1.149,0.233,2.216,0.316,2.216,1.131
		c0,0.599-0.558,0.982-1.543,0.982c-1.002,0-1.691-0.433-1.839-1.414h-2.069C187.254,40.344,188.617,41.542,191.063,41.542z"/>
	<path d="M194.964,34.255h1.166v5.008c0,1.614,1.199,2.046,2.282,2.046c0.886,0,1.395-0.033,1.395-0.033v-1.664
		c0,0-0.378,0.017-0.657,0.017c-0.492,0-0.837-0.216-0.837-0.848v-4.525h1.445v-1.497h-1.445v-2.662h-2.184v2.662h-1.166V34.255z"/>
	<path d="M204.817,41.542c2.61,0,4.4-1.963,4.4-4.509c0-2.545-1.789-4.509-4.4-4.509c-2.61,0-4.4,1.963-4.4,4.509
		C200.417,39.579,202.206,41.542,204.817,41.542z M204.817,39.812c-1.379,0-2.134-1.115-2.134-2.778
		c0-1.664,0.755-2.795,2.134-2.795c1.363,0,2.134,1.131,2.134,2.795C206.951,38.697,206.179,39.812,204.817,39.812z"/>
	<path d="M212.405,32.758h-2.151v8.535h2.233v-4.159c0-1.797,1.051-2.579,2.512-2.429h0.049v-1.98
		c-0.131-0.05-0.279-0.067-0.525-0.067c-0.985,0-1.56,0.499-2.069,1.464h-0.049V32.758z"/>
</g>
</svg>
