<svg width="42" height="9" viewBox="0 0 42 9" fill="none" xmlns="http://www.w3.org/2000/svg">
<path d="M0 8.81507H1.65462V2.49041H0V8.81507ZM0 1.50411H1.65462V0H0V1.50411Z" fill="white"/>
<path d="M4.3389 2.49041H2.72079V8.81507H4.3754V5.2274C4.3754 4.36438 4.91072 3.7726 5.6407 3.7726C6.33418 3.7726 6.7235 4.25343 6.7235 4.93151V8.81507H8.37812V4.68493C8.37812 3.30411 7.51431 2.31781 6.22468 2.31781C5.37304 2.31781 4.80122 2.67534 4.3754 3.35343H4.3389V2.49041Z" fill="white"/>
<path d="M10.9338 8.81507H12.5154L14.6932 2.49041H13.0386L12.0166 5.76986C11.8341 6.37397 11.7489 6.78082 11.7489 6.78082H11.7246C11.7246 6.78082 11.6273 6.37397 11.4448 5.76986L10.4472 2.49041H8.7682L10.9338 8.81507Z" fill="white"/>
<path d="M18.0093 9C19.6152 9 20.6007 8.05068 20.8319 6.92877H19.2016C19.0191 7.40959 18.6419 7.70548 17.9971 7.70548C17.0603 7.70548 16.525 7.10137 16.4033 6.1274H20.9292C20.9292 3.87123 19.8586 2.31781 17.8511 2.31781C16.0262 2.31781 14.773 3.7726 14.773 5.64658C14.773 7.53288 15.941 9 18.0093 9ZM17.8754 3.61233C18.6298 3.61233 19.1529 4.16712 19.2016 4.96849H16.4277C16.5737 4.14247 16.9995 3.61233 17.8754 3.61233Z" fill="white"/>
<path d="M24.2256 9C25.7829 9 26.8535 8.23562 26.8535 6.96575C26.8535 5.4863 25.6977 5.19041 24.6514 4.96849C23.7633 4.78356 22.936 4.73425 22.936 4.19178C22.936 3.73562 23.3618 3.48904 24.0066 3.48904C24.7122 3.48904 25.1381 3.73562 25.2111 4.4137H26.7075C26.5859 3.14384 25.6734 2.31781 24.0309 2.31781C22.6075 2.31781 21.4882 2.97123 21.4882 4.33973C21.4882 5.72055 22.5831 6.02877 23.7024 6.25069C24.5541 6.42329 25.3449 6.48493 25.3449 7.08904C25.3449 7.53288 24.9312 7.81644 24.2013 7.81644C23.4591 7.81644 22.9481 7.49589 22.8386 6.76849H21.3057C21.403 8.11233 22.4128 9 24.2256 9Z" fill="white"/>
<path d="M27.1161 3.6H27.9799V7.31096C27.9799 8.50685 28.8681 8.8274 29.6711 8.8274C30.328 8.8274 30.7052 8.80274 30.7052 8.80274V7.56986C30.7052 7.56986 30.4254 7.58219 30.2185 7.58219C29.8536 7.58219 29.5981 7.42192 29.5981 6.95342V3.6H30.6687V2.49041H29.5981V0.517808H27.9799V2.49041H27.1161V3.6Z" fill="white"/>
<path d="M34.4177 9C36.3522 9 37.6783 7.54521 37.6783 5.6589C37.6783 3.7726 36.3522 2.31781 34.4177 2.31781C32.4833 2.31781 31.1572 3.7726 31.1572 5.6589C31.1572 7.54521 32.4833 9 34.4177 9ZM34.4177 7.71781C33.3958 7.71781 32.8361 6.89178 32.8361 5.6589C32.8361 4.42603 33.3958 3.58767 34.4177 3.58767C35.4275 3.58767 35.9993 4.42603 35.9993 5.6589C35.9993 6.89178 35.4275 7.71781 34.4177 7.71781Z" fill="white"/>
<path d="M40.0412 2.49041H38.4474V8.81507H40.1021V5.73288C40.1021 4.40137 40.8807 3.82192 41.9635 3.93288H42V2.46575C41.9027 2.42877 41.7932 2.41644 41.6107 2.41644C40.8807 2.41644 40.4549 2.7863 40.0777 3.50137H40.0412V2.49041Z" fill="white"/>
</svg>
